<?xml version="1.0" standalone="no"?>
<!DOCTYPE svg PUBLIC "-//W3C//DTD SVG 20010904//EN"
 "http://www.w3.org/TR/2001/REC-SVG-20010904/DTD/svg10.dtd">
<svg version="1.0" xmlns="http://www.w3.org/2000/svg"
 width="512.000000pt" height="512.000000pt" viewBox="0 0 512.000000 512.000000"
 preserveAspectRatio="xMidYMid meet">

<g transform="translate(0.000000,512.000000) scale(0.100000,-0.100000)"
fill="#000000" stroke="none">
<path d="M2157 5106 c-54 -20 -91 -52 -125 -111 -14 -25 -18 -66 -22 -249 l-5
-220 -108 -37 c-59 -21 -159 -62 -221 -92 l-114 -55 -133 135 c-74 74 -152
145 -174 158 -58 34 -113 40 -181 20 -54 -16 -70 -29 -282 -238 -281 -277
-317 -319 -332 -390 -11 -46 -10 -62 5 -113 16 -56 26 -69 189 -231 187 -189
202 -198 251 -148 49 48 39 66 -126 230 -147 147 -179 186 -179 222 0 22 497
522 527 529 11 3 32 0 45 -6 12 -7 95 -84 184 -171 133 -132 165 -159 190
-159 16 0 87 29 159 65 72 35 190 85 264 109 89 30 144 54 160 71 l26 25 3
240 3 240 26 20 c25 19 40 20 373 20 333 0 348 -1 373 -20 l26 -20 3 -240 3
-240 30 -28 c21 -20 69 -41 163 -71 73 -24 189 -72 259 -107 72 -37 139 -64
156 -64 26 0 55 24 191 159 89 87 172 164 184 171 13 6 34 9 45 6 30 -7 527
-507 527 -530 0 -33 -23 -62 -181 -222 -135 -136 -159 -165 -159 -191 0 -17
27 -84 64 -156 35 -70 83 -186 107 -259 30 -94 51 -142 71 -163 l28 -30 240
-3 240 -3 20 -26 c19 -25 20 -40 20 -373 0 -333 -1 -348 -20 -373 l-20 -26
-240 -3 -240 -3 -28 -30 c-20 -21 -41 -69 -71 -163 -24 -73 -72 -189 -107
-259 -37 -72 -64 -139 -64 -156 0 -26 24 -55 159 -191 87 -89 164 -172 171
-184 6 -13 9 -34 6 -45 -7 -30 -507 -527 -530 -527 -33 0 -62 23 -222 181
-136 135 -165 159 -191 159 -17 0 -84 -27 -156 -64 -70 -35 -186 -83 -259
-107 -94 -30 -142 -51 -163 -71 l-30 -28 -3 -240 -3 -240 -26 -20 c-25 -19
-40 -20 -373 -20 -333 0 -348 1 -373 20 l-26 20 -3 240 -3 240 -30 28 c-21 20
-69 41 -160 70 -72 24 -188 72 -259 107 -73 37 -143 65 -160 65 -25 0 -55 -25
-190 -159 -160 -158 -189 -181 -222 -181 -23 0 -523 497 -530 527 -3 11 0 32
6 45 7 12 84 95 171 184 135 136 159 165 159 191 0 17 -27 84 -64 156 -35 70
-83 186 -107 259 -30 94 -51 142 -71 163 l-28 30 -240 3 -240 3 -20 26 c-19
25 -20 40 -20 373 0 333 1 348 20 373 l20 26 240 3 240 3 27 28 c37 37 105
250 91 286 -11 31 -37 50 -65 51 -39 0 -71 -41 -101 -130 l-28 -85 -219 -5
c-238 -5 -250 -8 -309 -66 -62 -63 -61 -55 -64 -461 -2 -248 1 -386 8 -413 6
-23 27 -59 47 -81 65 -72 72 -73 317 -79 l220 -5 37 -108 c21 -59 62 -159 92
-221 l55 -114 -135 -133 c-74 -74 -145 -152 -158 -174 -34 -58 -40 -113 -20
-181 16 -54 29 -70 238 -282 277 -281 319 -317 390 -332 46 -11 62 -10 112 5
55 15 70 28 210 164 l150 148 112 -54 c62 -30 161 -71 220 -92 l108 -37 5
-220 c6 -245 8 -252 79 -317 22 -19 57 -40 78 -46 51 -15 735 -15 786 0 21 6
56 27 78 46 71 65 73 72 79 317 l5 220 110 38 c61 21 160 62 221 92 l111 54
134 -135 c74 -74 152 -145 174 -158 58 -34 113 -40 181 -20 54 16 70 29 282
238 281 277 317 319 332 390 11 46 10 62 -5 112 -15 55 -28 70 -164 210 l-148
150 54 112 c30 62 71 161 92 220 l37 108 220 5 c245 6 252 8 317 79 19 22 40
57 46 78 15 51 15 735 0 786 -6 21 -27 56 -46 78 -65 71 -72 73 -317 79 l-220
5 -37 108 c-21 59 -62 158 -92 220 l-54 112 148 150 c136 140 149 155 164 210
15 50 16 66 5 112 -15 71 -51 113 -332 390 -212 209 -228 222 -282 238 -68 20
-123 14 -181 -20 -22 -13 -100 -84 -174 -158 l-134 -135 -111 54 c-61 30 -160
71 -221 92 l-110 38 -5 220 c-6 245 -8 252 -79 317 -22 19 -57 40 -78 46 -60
17 -748 14 -796 -3z"/>
<path d="M2340 4155 c-688 -95 -1243 -628 -1366 -1315 -8 -47 -18 -148 -21
-225 -17 -437 145 -857 451 -1174 124 -127 320 -274 384 -287 41 -8 82 27 82
71 0 37 -1 39 -144 138 -313 217 -517 531 -602 927 -28 128 -26 429 4 562 86
388 308 715 632 930 396 262 919 311 1359 128 112 -48 142 -50 170 -14 47 60
10 103 -139 161 -257 101 -540 135 -810 98z"/>
<path d="M3460 3820 c-11 -11 -20 -33 -20 -50 0 -26 20 -51 133 -163 154 -152
242 -276 318 -445 93 -211 124 -360 124 -607 0 -198 -17 -305 -76 -475 -248
-716 -1002 -1119 -1747 -933 -116 29 -141 24 -162 -27 -16 -39 8 -85 52 -99
308 -97 665 -93 981 10 475 155 871 551 1026 1026 205 626 11 1310 -492 1734
-65 55 -103 63 -137 29z"/>
<path d="M1886 3108 c-19 -18 -131 -151 -250 -296 -171 -208 -216 -269 -216
-292 0 -23 48 -87 236 -315 130 -158 247 -291 260 -297 12 -6 34 -8 48 -4 31
8 60 58 50 89 -4 12 -101 136 -216 275 l-209 252 209 253 c115 138 212 262
216 274 4 13 1 34 -8 51 -27 53 -72 56 -120 10z"/>
<path d="M2771 3123 c-28 -24 -541 -1117 -541 -1154 0 -62 94 -90 129 -38 30
43 531 1119 531 1139 0 28 -44 70 -73 70 -14 0 -34 -8 -46 -17z"/>
<path d="M3129 3121 c-16 -13 -23 -29 -23 -53 0 -30 26 -66 212 -291 l213
-257 -209 -252 c-115 -139 -212 -263 -216 -275 -10 -31 19 -81 50 -89 14 -4
36 -2 48 4 13 6 130 139 260 297 188 228 236 292 236 315 0 23 -45 84 -216
292 -119 145 -231 278 -250 296 -38 36 -71 41 -105 13z"/>
</g>
</svg>
